<?xml version="1.0" standalone="no"?>
<!DOCTYPE svg PUBLIC "-//W3C//DTD SVG 20010904//EN"
 "http://www.w3.org/TR/2001/REC-SVG-20010904/DTD/svg10.dtd">
<svg version="1.0" xmlns="http://www.w3.org/2000/svg"
 width="1000.000000pt" height="1000.000000pt" viewBox="0 0 1000.000000 1000.000000"
 preserveAspectRatio="xMidYMid meet">

<g transform="translate(0.000000,1000.000000) scale(0.100000,-0.100000)"
fill="#000000" stroke="none">
<path d="M3570 7404 c0 -93 3 -192 6 -220 l6 -51 97 -6 c120 -7 146 -16 160
-59 28 -83 41 -371 24 -540 l-6 -68 -118 0 -119 0 0 -107 0 -108 -244 4 -244
3 -160 -239 -160 -240 -204 -6 c-111 -4 -234 -13 -273 -21 -210 -43 -392 -143
-542 -299 -200 -209 -295 -447 -294 -737 1 -280 93 -514 283 -715 188 -199
402 -302 678 -326 72 -6 703 -9 1675 -7 l1560 3 145 29 c286 56 522 129 620
192 19 12 316 170 660 352 1178 621 1120 592 1169 592 33 0 86 -38 161 -114
l54 -56 148 0 148 0 0 35 0 35 -70 0 -70 0 0 415 0 415 70 0 70 0 0 35 0 35
-147 0 -147 0 -90 -89 c-122 -119 -111 -118 -451 -51 -609 119 -869 162 -1225
204 -260 31 -720 76 -775 76 l-40 0 -110 220 -110 220 -90 0 c-49 0 -195 3
-322 7 l-233 6 0 119 0 118 -60 0 -60 0 0 45 c0 33 -4 45 -15 45 -11 0 -15
-12 -15 -45 0 -33 -4 -45 -15 -45 -13 0 -15 27 -15 180 0 153 -2 180 -15 180
-13 0 -15 -27 -15 -180 l0 -180 -272 0 -273 0 0 273 c-1 240 -4 284 -22 371
-54 244 -180 385 -398 441 -33 9 -117 18 -187 22 l-128 6 0 -169z"/>
</g>
</svg>
